<svg xmlns="http://www.w3.org/2000/svg" width="84" height="76" viewBox="0 0 84 76">
    <g fill="#FFF" fill-rule="nonzero">
        <path d="M80.72 15.118c-2.188-2.283-4.827-3.425-7.919-3.425h-9.8l-2.23-6.211c-.555-1.492-1.568-2.779-3.042-3.86C56.256.54 54.747 0 53.201 0H30.8c-1.547 0-3.056.54-4.53 1.622-1.472 1.081-2.485 2.368-3.04 3.86l-2.23 6.21h-9.8c-3.093 0-5.732 1.143-7.92 3.426C1.094 17.402 0 20.157 0 23.385v40.923c0 3.227 1.094 5.983 3.281 8.266C5.469 74.858 8.108 76 11.201 76h61.6c3.091 0 5.73-1.142 7.918-3.426C82.906 70.291 84 67.535 84 64.308V23.385c0-3.228-1.093-5.983-3.28-8.267zM55.847 58.302c-3.835 4.004-8.45 6.007-13.847 6.007-5.396 0-10.011-2.003-13.847-6.007-3.835-4.003-5.753-8.823-5.753-14.455 0-5.634 1.918-10.451 5.753-14.455 3.836-4.005 8.451-6.006 13.847-6.006 5.396 0 10.012 2.002 13.847 6.006 3.836 4.003 5.754 8.821 5.754 14.455 0 5.632-1.918 10.451-5.754 14.455z"/>
        <path d="M42 30.4c-3.521 0-6.532 1.3-9.032 3.903-2.5 2.601-3.75 5.733-3.75 9.398 0 3.663 1.25 6.796 3.75 9.397S38.478 57 42 57c3.52 0 6.532-1.3 9.032-3.902 2.5-2.601 3.75-5.734 3.75-9.397 0-3.665-1.25-6.797-3.75-9.398C48.532 31.7 45.521 30.4 42 30.4z"/>
    </g>
</svg>
