<?xml version="1.0" encoding="UTF-8"?>
<svg width="400px" height="400px" viewBox="0 0 400 400" version="1.1" xmlns="http://www.w3.org/2000/svg" xmlns:xlink="http://www.w3.org/1999/xlink">
    <!-- Generator: Sketch 55.2 (78181) - https://sketchapp.com -->
    <title>symbol</title>
    <desc>Created with Sketch.</desc>
    <defs>
        <filter x="-6.8%" y="-6.8%" width="113.6%" height="113.6%" filterUnits="objectBoundingBox" id="filter-1">
            <feOffset dx="4" dy="4" in="SourceAlpha" result="shadowOffsetOuter1"></feOffset>
            <feGaussianBlur stdDeviation="5" in="shadowOffsetOuter1" result="shadowBlurOuter1"></feGaussianBlur>
            <feColorMatrix values="0 0 0 0 0.133333333   0 0 0 0 0.133333333   0 0 0 0 0.133333333  0 0 0 0.2 0" type="matrix" in="shadowBlurOuter1" result="shadowMatrixOuter1"></feColorMatrix>
            <feMerge>
                <feMergeNode in="shadowMatrixOuter1"></feMergeNode>
                <feMergeNode in="SourceGraphic"></feMergeNode>
            </feMerge>
        </filter>
    </defs>
    <g id="Page-1" stroke="none" stroke-width="1" fill="none" fill-rule="evenodd">
        <g id="symbol" filter="url(#filter-1)" transform="translate(-2.000000, -2.000000)">
            <rect id="Rectangle" fill="#328FFF" transform="translate(198.000000, 198.000000) rotate(-315.000000) translate(-198.000000, -198.000000) " x="58" y="58" width="280" height="280" rx="20"></rect>
            <g id="Group-5" transform="translate(115.000000, 107.000000)" fill="#FFFFFF" stroke="#FFFFFF" stroke-width="4">
                <g>
                    <g>
                        <path d="M101.153879,143.408469 C96.431969,143.408469 91.775669,141.662351 88.2533071,138.148033 L92.725031,133.686521 C97.502669,138.453249 105.526398,138.202846 110.611926,133.128931 C115.69706,128.055016 115.94764,120.050005 111.170793,115.283277 L115.641726,110.822159 C122.88486,118.047963 122.634279,130.056663 115.08286,137.590443 C111.204783,141.460451 106.142179,143.408469 101.153879,143.408469" id="Fill-1"></path>
                        <path d="M131.509271,9.66252135 L131.904509,28.2692425 L131.904509,28.2747632 L131.904509,32.7307545 C131.710447,32.7323318 131.904509,32.7354865 131.904509,32.7354865 L131.904509,37.9596434 C131.904509,37.9596434 128.272271,52.9759397 123.975638,57.3625279 L56.00259,126.839713 C54.7836757,128.086208 54.80739,130.083911 56.0567376,131.300831 C57.3064805,132.518144 59.3079662,132.493696 60.5280662,131.246807 L128.500323,61.7708046 C130.867404,59.3543166 132.998133,56.0202098 134.647461,52.3812817 C136.451328,48.4028307 137.675776,44.0619854 138.003823,40.1604298 L153.014966,54.795798 C156.75629,58.4430072 156.825061,64.4467654 153.169109,68.1799397 L52.0470471,171.502547 C48.39149,175.234933 42.3743852,175.304336 38.6330614,171.657127 L27.3197662,160.626774 C30.5907567,160.127151 33.7313186,158.606593 36.2173662,156.068256 L38.4275376,153.811473 C39.6476376,152.566951 39.6247138,150.568064 38.3757614,149.350356 C37.126809,148.132648 35.1249281,148.155914 33.9044329,149.402014 L31.6946567,151.65919 C28.0390995,155.390787 22.0227852,155.460585 18.2818567,151.814558 L16.0187233,149.608251 C16.0187233,149.608251 16.0179329,149.607857 16.0175376,149.607463 L9.23446143,142.994062 C5.49353286,139.346458 5.42318048,133.3427 9.08031857,129.60992 L127.88138,8.23818148 C129.39119,6.69672397 130.401814,6.33078061 130.723538,6.30869782 C130.941314,6.5460878 131.509271,9.66252135 131.509271,9.66252135 L131.509271,9.66252135 Z M141.313152,25.9249179 L159.411104,43.5635453 L154.987995,48.0794756 L137.83308,31.3541292 L137.811738,29.5054843 L141.313152,25.9249179 Z M95.7283662,135.901543 L112.698309,118.562611 L95.7283662,135.901543 Z M117.171219,113.928774 L157.629766,72.590188 C158.953023,71.2391946 159.983014,69.7107501 160.721319,68.0817501 C162.961133,63.1411205 162.515304,57.2848438 159.410709,52.7168612 L164.055942,47.974188 C164.580423,47.4382861 164.99819,46.8262773 165.298571,46.1633993 C165.673652,45.3356891 165.866528,44.4295061 165.855912,43.4945366 C165.83649,41.8103296 165.160238,40.2345649 163.95318,39.0578678 L145.855228,21.4129309 C143.654147,19.2669571 140.271304,19.0555932 137.83308,20.7480813 L137.704628,9.59035795 C137.630719,3.2269658 134.737576,1.12515752 133.019476,0.437830719 C131.301376,-0.249496078 127.752928,-0.722304357 123.295433,3.82951046 L4.49476619,125.200855 C-1.59703857,131.421892 -1.48241952,141.427761 4.75246143,147.506837 L13.7974852,156.326151 C13.7974852,156.326151 13.798671,156.32694 13.7990662,156.327728 L34.1506662,176.169114 C40.3859424,182.247796 50.4143186,182.13265 56.5080995,175.911219 L91.129771,140.536563 L117.171219,113.928774 Z" id="Fill-3"></path>
                    </g>
                </g>
            </g>
        </g>
    </g>
</svg>