<svg xmlns="http://www.w3.org/2000/svg" xmlns:xlink="http://www.w3.org/1999/xlink" width="323" height="87" viewBox="0 0 323 87">
    <defs>
        <path id="a" d="M.755 1.537H56.67v69.177H.755z"/>
        <path id="c" d="M.855.544h48.369v67.7H.854z"/>
    </defs>
    <g fill="none" fill-rule="evenodd">
        <path fill="#FFF" d="M0 2.722C3.07 1.566 6.471.578 9.79 0c2.903 10.069 11.448 59.86 14.187 70.844 3.318-14.036 9.789-39.796 13.025-52.179 3.151-.247 7.299-.328 9.787 0 3.32 12.383 9.792 38.143 13.029 52.18C62.552 59.86 71.097 27.747 74 17.68c3.317.576 6.718 1.565 9.789 2.72-3.151 12.134-13.936 49.37-18.665 65.22-3.154.418-7.552.418-10.452 0-4.398-16.509-9.127-36.326-12.778-50.855-3.652 14.529-8.38 34.346-12.778 50.855-2.9.418-7.298.418-10.45 0C13.937 69.77 3.152 14.856 0 2.722M91.055 18.666c2.489-.41 7.053-.41 9.789 0 .165 12.472.165 55.318 0 66.954-3.317.498-6.803.498-9.789 0-.25-11.307-.25-54.155 0-66.954M112.388 18.666c2.736-.496 7.632-.496 9.953 0 .166 12.054.166 48.711 0 57.959 5.976-.168 21.985-.168 28.374 0 .331 2.724.331 6.433 0 8.995-6.389.249-31.36.249-38.327 0-.084-14.035-.166-53.327 0-66.954M156.546 76.955c1.327-2.311 4.066-5.7 6.056-7.435 5.308 4.626 11.865 8.174 18.582 8.174 6.722 0 11.45-3.548 11.45-9.66 0-5.942-2.739-8.992-15.016-13.121-12.611-4.127-18.086-9.747-18.086-19.159 0-11.386 7.716-18.075 21.156-18.075 8.13 0 15.017 3.132 19.91 8.174-1.411 2.306-3.735 4.946-6.055 6.769-4.564-3.967-8.464-5.781-14.27-5.861-6.804-.087-10.618 3.381-10.618 8.583 0 5.365 2.82 8.337 13.77 11.974 13.357 4.456 19.163 9.82 19.163 20.306 0 11.886-7.715 19.232-22.15 19.232-10.037 0-17.917-3.878-23.892-9.901"/>
        <g transform="translate(208.335 16.143)">
            <mask id="b" fill="#fff">
                <use xlink:href="#a"/>
            </mask>
            <path fill="#FFF" d="M46.713 36.13c0-17.337-5.391-25.43-18.002-25.43-11.947 0-18.003 7.178-18.003 25.43 0 18.49 6.307 25.42 18.003 25.42 11.534 0 18.002-6.686 18.002-25.42m-45.958 0c0-24.115 9.872-34.593 27.956-34.593 18.086 0 27.96 10.478 27.96 34.592 0 24.515-10.29 34.586-27.96 34.586-18.084 0-27.956-10.4-27.956-34.586" mask="url(#b)"/>
        </g>
        <g transform="translate(272.935 17.75)">
            <mask id="d" fill="#fff">
                <use xlink:href="#c"/>
            </mask>
            <path fill="#FFF" d="M.98.916c2.989-.41 7.798-.41 9.958 0 6.47 10.408 23.642 40.126 28.454 49.12-.25-7.01-.25-40.534-.084-49.12C42.543.42 46.776.42 49.1.916c.165 13.459.165 53.584 0 66.954-2.574.498-6.306.498-9.541 0-5.725-9.243-23.644-40.286-28.872-49.945.25 8.584.25 42.35.084 49.945-3.07.498-6.721.498-9.791 0C.813 55.077.813 15.281.98.916" mask="url(#d)"/>
        </g>
        <path fill="#FFF" d="M98.653 23.24H75.7A2.245 2.245 0 0 1 73.45 21V19.05a2.245 2.245 0 0 1 2.25-2.24h22.954a2.246 2.246 0 0 1 2.252 2.24V21a2.246 2.246 0 0 1-2.252 2.24"/>
    </g>
</svg>
